# xmcd
# 
# Track frame offsets:
#     150
#     26225
#     45078
#     60750
#     79658
#     108538
#     132797
#     156889
#     174632
#     191272
#     215600
#     233285
#     252809
#     273496
#     302070
# 
# Disc length: 4333
# 
# Revision: 1
# Processed by: cddbd v1.5.2PL0 Copyright (c) Steve Scherf et al.
# Submitted via: fre:ac v1.0.31
# 
DISCID=b810eb0f
DTITLE=Jack Bruce - Jack Bruce - Sunshine Of Your Live - A Live In Music Disc 2
DYEAR=2015
DGENRE=Rock/Pop
TTITLE0=Without A Word
TTITLE1=How's Tricks
TTITLE2=Childsong
TTITLE3=The Best Is Still To Come
TTITLE4=She's Moving On
TTITLE5=Jet Set Jewel
TTITLE6=Ships In The Night
TTITLE7=City of Bold
TTITLE8=Waiting In The Wings
TTITLE9=Out Into The Fields
TTITLE10=The Night Tat Once Was Mine
TTITLE11=Candlelight
TTITLE12=Fields Of Forever
TTITLE13=Reach For The Night
TTITLE14=Don't Look Now
EXTD=
EXTT0=
EXTT1=
EXTT2=
EXTT3=
EXTT4=
EXTT5=
EXTT6=
EXTT7=
EXTT8=
EXTT9=
EXTT10=
EXTT11=
EXTT12=
EXTT13=
EXTT14=
PLAYORDER=
